/* XPM */
static char *bf9243afb48a4e6bfd5a4fe23cf927ea7fnc5PhKG6MJIGqf[] = {
/* columns rows colors chars-per-pixel */
"64 64 217 2 ",
"   c #38251E",
".  c #2D2522",
"X  c #2E2A27",
"o  c #342A26",
"O  c #3C2A24",
"+  c #352D2B",
"@  c #3C2D2B",
"#  c #332625",
"$  c #3C312C",
"%  c #3A2F32",
"&  c #3D3433",
"*  c #39363B",
"=  c #3D3939",
"-  c #363234",
";  c #412F25",
":  c #44332C",
">  c #49352E",
",  c #483A2F",
"<  c #433533",
"1  c #493732",
"2  c #443A35",
"3  c #4B3B35",
"4  c #453C3A",
"5  c #4B3E3B",
"6  c #403738",
"7  c #513D35",
"8  c #523F3B",
"9  c #3F423B",
"0  c #46413D",
"q  c #4C423C",
"w  c #4E4037",
"e  c #53423B",
"r  c #59453D",
"t  c #58473D",
"y  c #61463F",
"u  c #443E41",
"i  c #483B42",
"p  c #444444",
"a  c #4C4443",
"s  c #4C4946",
"d  c #4D4649",
"f  c #4E4B4B",
"g  c #524543",
"h  c #5A4641",
"j  c #554944",
"k  c #5C4B44",
"l  c #514649",
"z  c #534C4B",
"x  c #5B4D4B",
"c  c #53514C",
"v  c #5D514D",
"b  c #534E53",
"n  c #5B4F52",
"m  c #554F59",
"M  c #4F5150",
"N  c #565154",
"B  c #5C5453",
"V  c #5D5A55",
"C  c #5B5659",
"Z  c #5D595B",
"A  c #55535A",
"S  c #624C44",
"D  c #614E4A",
"F  c #6B4E48",
"G  c #645247",
"H  c #64524C",
"J  c #6A554D",
"K  c #6B594E",
"L  c #62584E",
"P  c #715B4F",
"I  c #73564C",
"U  c #635553",
"Y  c #6B5652",
"T  c #645955",
"R  c #6C5A54",
"E  c #625658",
"W  c #635B5B",
"Q  c #6B5D5B",
"!  c #735C55",
"~  c #7B5E54",
"^  c #735E59",
"/  c #7B5E5A",
"(  c #705750",
")  c #6C6156",
"_  c #66625E",
"`  c #6C615D",
"'  c #736156",
"]  c #74625B",
"[  c #7A645D",
"{  c #7C695E",
"}  c #7A6357",
"|  c #5D5D61",
" . c #625E61",
".. c #685F64",
"X. c #656263",
"o. c #6B6464",
"O. c #6B6569",
"+. c #6C696B",
"@. c #6A6867",
"#. c #726463",
"$. c #7B6661",
"%. c #766964",
"&. c #7C6B63",
"*. c #726669",
"=. c #736C6C",
"-. c #7A6E6C",
";. c #7F6669",
":. c #75716E",
">. c #7B7269",
",. c #6E6B70",
"<. c #726E72",
"1. c #757274",
"2. c #7B7474",
"3. c #7C7977",
"4. c #76757B",
"5. c #7A757A",
"6. c #7D7A7B",
"7. c #767A7B",
"8. c #81655C",
"9. c #836A5F",
"0. c #816661",
"q. c #836B64",
"w. c #896D64",
"e. c #836E69",
"r. c #8A6E6B",
"t. c #866765",
"y. c #8B7265",
"u. c #85726B",
"i. c #8B746C",
"p. c #8D796E",
"a. c #877466",
"s. c #927165",
"d. c #93746C",
"f. c #9B776D",
"g. c #947A6E",
"h. c #9B7A6D",
"j. c #837573",
"k. c #8B7671",
"l. c #837974",
"z. c #8D7A73",
"x. c #827679",
"c. c #837C7D",
"v. c #8A7B7B",
"b. c #937672",
"n. c #947B74",
"m. c #9B7D73",
"M. c #957E79",
"N. c #9B7E79",
"B. c #A27E74",
"V. c #A17F78",
"C. c #A87F79",
"Z. c #7E807D",
"A. c #9A806F",
"S. c #84817E",
"D. c #8C817C",
"F. c #958175",
"G. c #9C8175",
"H. c #95827C",
"J. c #9C837B",
"K. c #9D897C",
"L. c #A0816F",
"P. c #A28276",
"I. c #A2857B",
"U. c #AA857D",
"Y. c #A3897D",
"T. c #A98A7D",
"R. c #A68674",
"E. c #7D7D81",
"W. c #7F7B86",
"Q. c #837E82",
"!. c #887F82",
"~. c #7E8284",
"^. c #858384",
"/. c #8B8484",
"(. c #8C8986",
"). c #86858A",
"_. c #8B868B",
"`. c #86898B",
"'. c #8C8A8C",
"]. c #948683",
"[. c #9C8681",
"{. c #928986",
"}. c #9D8A83",
"|. c #91878B",
" X c #908A8E",
".X c #928C8C",
"XX c #998D8D",
"oX c #8D908F",
"OX c #94918E",
"+X c #99908E",
"@X c #9F9184",
"#X c #848C91",
"$X c #8D8C91",
"%X c #878590",
"&X c #928E92",
"*X c #998D93",
"=X c #928691",
"-X c #8D9293",
";X c #949293",
":X c #9A9495",
">X c #949499",
",X c #9B9698",
"<X c #9C9A9B",
"1X c #9A9997",
"2X c #A28681",
"3X c #AA8781",
"4X c #A48B83",
"5X c #A98D83",
"6X c #AA8F89",
"7X c #A48D89",
"8X c #A59185",
"9X c #AB9185",
"0X c #A4928C",
"qX c #AA928B",
"wX c #AC988D",
"eX c #A19996",
"rX c #B08B83",
/* pixels */
"~ y.u.t i.m.g.A.' 8.h.s.y.m.Y Q '.^.(.`.Z 7._._._.c.E c._.=X4.@..X X X(.(.*.=.!.).!.o.<..X.X-X;XOX:XOX'.;X'.'.o.8.A.m.n.b.r : k ",
"Y.J.H.{ e q.z.F.Y q.f.s.h.m.Y 2.'.'.^.^.+.1. X_. X XO.o.'.$XO.+..X X'.).$X<.O.!.5.6.C x S.'.OX'.-X&X>X-X$X`.-X1.3 J J D O S F.Y.",
"G.J.F.z.@ > k R w q.h.s.s.m.Q 2.=X'.'.'.c.C (._._.%X1.z c.X.+ B $X).).).&X,.* m C m = 4 W X.=.6.'.)..X=X'.>X`.@.l *.-.` j 6XI.m.",
"I.K.z.k ] i.R 3 + ' i.r.r.^ w S. X_. X/.6.d c..X&X_.$Xu o x v j C 6.).c.C * ,.%X_.6. ./.^.1.O.C 0 x T Q V Z z & (.;X(.&Xo.z.G.R.",
"[ ' t 7 G.m.A.g.3 : j v x q 0 _ c.5.*. .a = Z =.=.X.N % ] 4XJ.Y.#.+ 5 D i x %X=X$X).Z /. X.X:X5.U i.d.w.0.] Y e v.:X(..X=.%.H.d.",
"&.u.z.{ p.h.s.y.x T S.^.^.'./.*.d d @.1.6.c.@.4 a O.+.d i.5XI.G.K.j R N.n.o.;X=X_.*XO.5..X^. X^.) n.h.h.R.A.g.! j.{..X{.D.e h Y ",
"}.8X0X{ S ~ q.' a (.;X'.<X-XoX:X-.+.,X.X;X;X(.@.j.=X>X1.[ P.5XG.N.[ K.m.i._ ^.&X%X$X| =..X/./.).B e.m.m.h.d.g.[ W {.!.c.E : H.5X",
"4XY.K.Y ! e.R w N oX'.*X*X`.-X'.c.o.OX(.&X'.'.@./.).%XW.Q H.J.}.n.) g.f.~ - 7.6.5.O.* u C o. . .a x [ t.d.d.N.$.+ d N B a k qXY.",
"F.l.Q J J.m.m.t.T (.OX'.;XoX;XoX~.@.3.'.;X.X^.| |./.'. X#.;.I.G.v.j R ' $.Q 5 x G j 4 S.^.(.'._.'.c.2.#.Q Q B 3 ' g.V.V.J.J i.H.",
"J J 3 H G.m.g.b.B c.'.'.'.'.(.(.$Xv < 3.3.2.x X.>X'.'.;XE.l x K e # ^ K.}.p.J }.K.H.` .X-X;X;X$X$X1X,X'.|.^.x R 9XG.m.N.b.1 r H ",
"m.H.q.S t ' { u.j T .X'.-X>XoX;X=.k ! L U K @ ` $X_.=X%X).N %.G.Y Q qX[.Y.y.i.K.G.n.R c.1X`.^.:X;X'.`.-X$X'.Q e.N.V.N.i.G J F.m.",
"f.d.F.y G P J k 3 4 X.S.2.X._ f & G.Y.Y.}.H.g.` ^.|.|._.'.W y.R.$.r.7X2XP.~ g.I.I.J.R ..^.^.'.(.;X.X1X#X`.6.5 e.i.[ U 8 < K.m.m.",
"N.M.u.S Y.8XY.K.F.&.j $ + f N z x Y.R.Y.G.Y.n.v Q.(._.|.).Z $.P.] i.7X4X}.( M.N.n.-.4 5 N v T B Z ` ` T C 5 # : q @.2.(.E p.G.h.",
"p.n.K ] 4XG.J.G.Y.F.i.< *.eX+XOXo.i.T.P.I.G.G.k p +.<.5.1.f z i.x x u.u.$.e Y Q U g 2 j.7XH.H.H.B x e.i.k.i.] 3 Z.1XoX'.=.u.m.V.",
"Y G : e.Y.I.Y.5XG.G.i.v 1X.XoX.X3.&.I.P.G.Y.F.t r ' R J x 5 & v Q o.#.T i *.Q.Q.^.1.U H.4X4X4X}.&.p.5XY.Y.Y.K.{ 3.OX$X>X=.h [ } ",
"i.i.J i.G.Y.m.J.G.J.i.` .X-X;X;X$X) A.J.F.G.i.U B.B.h.G.P.H.] ) >X_._.=X<.5.'.).`.Q.Y 4X4X4XJ.}.-.[ T.Y.G.I.2Xt.c./.W.+.i 5 Y { ",
"G.K.' R M.G.G.H.F.H.p.) OX;X-X&X;X=.{ Y.m.G.q.I R.s.V.m.g.G.G.I X.5.4.E.A b E.Q.Q.| Y 6XP.5XH.0X&.$.4XP.Y.P.I.i.v U ) &.R $.6X4X",
"F.}.$.< 8 H K ! { ' e B OX-X;X:X-XS.x q.t.&.e ! h.B.m.P.G.P.d.I.x & g a i x x T E : H 0X[.].}.p.5 %.4XI.N.G.I.u.x ].8XK.d.q.G.n.",
"F.&.a g >.D.z.F.u.z.R c OXoX;X'.$X^.p < U c + ) B.d.B.m.m.P.I.m.u.> 0.G.I.I.G.m.m.q.3 z W U D r 7 H e.H.J.J.[.e.^ 8XI.Y.d.t.4Xm.",
"U Q E o.0X}.}.}.0X}.H.` S.(.'.'.).C 0 c./.'._ < ( i.m.m.m.G.m.J.k.S G.P.R.P.R.G.G.g.e $.j.M.M.m.e.: > F { u.z.! t.Y.I.Y.i.Y i.' ",
"^.oX^.W H.}.}.}.}.].{.v + l j z 3 X 2.+X|.`.o.O 3 S ! d.K.J.G.g.j.3 b.m.G.G.I.I.K.! ^ 5XI.I.G.m.e.e ] ' R H D @ g.Y.Y.qXk.% d O.",
"`.`.$XX.l.7XH.}.}.0XD.v k [ &.&.k.U :.c.5.X.0 8.K.n.{ H ! J J J g O Y k.J.n.p.i.#.3 b.I.R.P.G.G.$.Y 7XM.J.F.k.U ! i.&.U 4 * W.$X",
"'.`.;X=.#.}.[.H.i.%.j : n.G.G.G.F.L 4 b N - -.5Xb.N.H.i.3 ] w.i.i.4X$.r e Y J ! H e H.I.G.m.H.b.k k K.N.J.H.M.^ @ L Q ] C b %X).",
"$X;X'.3.0 k U E J L L k n.V.B.h./ g :.^._.X.D.P.I.[.H.-.Y qX2X5X5XJ.4Xe.r K.8XK.4Xe.r H Y [ Y Y g e i.n.b.n.M.j E :XOXXX].W {.(.",
"$X`.$X<.h d.G.J.U.5XI.^ ! $.! S $ 2.,X&X'.*.&.}.z.;.Q < j k.N.Y.Y.4XK.M.U F.2XU.H.}.Y 7 q.d.r.N.m.^ < n U H q . &.{.]./._. .^.].",
"(.$X).l b.Y.I.G.4Xn.G.[ 1 ^ $.n.' x.'.).;X=.e ( ( ^ { u./ S J J } { { H > u.4X4X2XK.[ [ 4XN.U.M.G.U Q '.c.v.S.m x {.{._.|.a o._.",
"n b u j 4XR.R.5Xm.4XM.J z.2X4XI.e.j.'.#X6.d ; t.A.G.U.V.4Xk.@ x / %.q.&.j 5 ] [.I.G.] Y 2XN.J.N.&.4 .X_.$X'.'.).6 4 x U j # 6 z ",
"2.5. .U 4Xm.P.b.i.[ r 8 4X[.V.Y.z.U -.+.N x x J.G.m.m.G.M.e.G }.4X4X}.4Xr.O , 1 H $.1 4 x S Y E o c $X).).'.%X<.D j.e.q.r i 1.1.",
"=X_._.B ! ~ ( [ $.e.i.^ i.4XI.I.v.3 ! k.N.[.! { m.b.i.i.i.R ! 7XI.6X2X4X[ S u.a.5 @ Q 2.2.x.3.5.2.N =.Q.).^./.U g.5XI.9X^ -.,X).",
"_.&X_.a h i.G.}.6X4X[.z.! i.w.t.3 ' 4X3XU.I.{ , h D k k t # u.4XY.H.I.H.Y d.4XK.K.g 2.).^.).^.).'.o.% B  .@.4 t 9XY.4X4X^ j.Q.%X",
"x.E. .x wXY.5X4X2X4XK.N.: S [ 8.! k.I.G.m.G.n.k i.b.N.n.J.] R K.4X4X7X&.] 4X2Xm.n.$.5 <.<.2.E.4.<.& =./.1.1.z T G.n.i.&.q E c.1.",
"W n 6 j Y.Y.Y.4X4X2Xn.8 ] J.N.K.k./ 4XY.J.4Xz.^ G.f.d.P.m.b.v q ! ] %.g z.0XI.5XY.m.D o 5 a x d * & ]..X'.>X^.3 j v N x d + 4 U ",
"G.m.m.^ J i.N.b.9.k @ [ Y.m.m.m.b.r ~ y.y.y.q.w y.m.m.m.G.m.K 0.b.u.w L qXY.9XY.4XK.$.J I.G.P.G.G.G l.:X X|.].C c.!._.%X^.j a.Y.",
"R.U.I.n.q.8 , H Y o.v Y ! ! ^ ! B 0 T *.$.l + = k J ^ ^ $.{ e i.I.H.T u.qXI.Y.8X2XK.u.{ 5XY.Y.4XI.&.=.`.'.OX^. .)._.).Q.Q.Q G.R.",
"I.3XI.[.N.Y 0.}.2X7Xk.5 $.$.i.x 1.1X>X'.*X,.C '.^.5.3.=.Q l # %.f.n.k e.5XI.9XY.5X4Xi.{ Y.I.Y.I.U.z.T :X;X'.$X| 4.Q.Q.Q.o.v 4XR.",
"G.H.I.H.k./ 4X4XY.Y.b.J K.C.m.) ]..X;X<X;X1.:..X$X$X%X_. X/.a & H D @ e k.9XP.5X4XK.d.! Y.Y.Y.Y.[.z.3 W :.:.X.& e T n E $ J Y.B.",
"2X2XI.[.q.&.}.}.I.I.i.G n.P.m.) {.;X:X$X*X<.o.OX(. X&X;X'.E.N O.Q.4.5...H i.Y.Y.G.Y.n.( G.Y.Y.G.H.Y r J R T 1 U I.g.2XM.z.Y n.4X",
"^ ~ Y Y > e.6XI.}.].%.6 H ( ] a /.>X-X;X>XO.1.'.!.{..X^.).E.Z '.$X$X%X>X5.x Y i.b.M.l.j Y 0.$.] 0 3 G.G.g.G.e.y.T.P.I.J.K.{ r ! ",
"a.i.u.$.k r.4Xb.&.T 6 Y / [ Y g C 1.+.=.Q & B .X&X'.(.&X_. .o.&X!.%X&X$X'.6.4 3 x U B & < ` =.-.+.] n.f.m.n.w.K G.I.Y.4Xz.v J k.",
"U.5X4X4Xn.j k J ~ ' Y 2XC.m.P.V.v 3 ' 0.} r.R x | X.| O.b X 2.{.{.*X X^.'.'.C O..X).`.4.C .X&X$X'.o.d.B.f.n.b.k e.k.^ ! w : J.}.",
"4XY.J.K.v.7 [ J.K.n./ n.V.f.N.M.^ y.R.B.B.m.b., ( } 9.q.{ Y B =.3.~.).&X`.`.N E..X_.&X). .!.$X'.%Xo.e.f.m.d.Y 6 & j X.+.Q.W e.U.",
"k.i.M.z.Y ' 9Xm.I.w.F I.m.P.m.N.x S w.8.0.t.h < I.I.G.R.2XM.5 3 U T E o.=.o.a Q.|.=X'.=X+.-._.Q.x.5 Y K.w.Y Q 5.B -.1X:X'.@.j i.",
"H R k h : n.n.g.&.3 e u.w.8.^ Y a p $ z T T B N m.B.P.m.M.b.S i.I.I.b.$.L w < =.).`.`.%XW 5 E R G w e k H 2.$X_.1.2._.Q./.7.$ : ",
"}.4X2Xk.k v H Y _ 3.:.z 0 %.2.S.&XW.Z ;X&X%X'.@.i.m.m.m.H.$.S N.m.m.U.2XI.n.k 4 B | O.C j u.H.n.K.z.q v .X$XQ.$X<.<..X'.'.N @ $.",
"K.4X2X[.R s 3..X;X$X#X4.X.;X;X&X=X!.o.&X!.=X=Xn r R ' Q R 0 3 4XI.m.G.G.g.I.! n c.!.^.o.J 4XY.B.m.F.R 3.^.~.$XQ.1.M @.T 4 # h }.",
"5XH.[.[.T Z.:X)._._.$X5...:X=X&X<X6.+.-X%X).O.4 o.l./..X(.^.W v.Y.G.K.Y.I.I.Y *._.'.'.x.] J.m.P.m.b.v /.)._._.).s q T Y Q H h b.",
"U Y $.j q ^.`.'. X&X$X5.l ]./._.<.9 z X.b p X 0 :X1X+X;X$X1X-.q.Y.G.G.G.V.m.^ =.(._.`.,.T H.K.m.7XR : o.-.=.C 4 ) J.T.P.K.}.' e ",
"Z 2.l.j.c S.'.).'.`.~.M a V a p n H F ! ^ t.b.! c..XXX,X>X$Xz.^ V.I.J.G.P.m.$.z 5.1.W.b & k J Y r 1 h U E Q Q d g.P.h.R.m.F.n.w ",
"x.(.v.V 5 j =.2.~.3.d +.>X<.a g.I.V.R.P.5XU.n.i.E /.v.Q.^.D.S.s q.m.m.G.N.M.G ; x G J < W ).).c.+.U 2XrXR.Y.4X^ 8.I.P.P.P.N.H.J ",
"z z 5 -.2.2.X.W N # z -X~.C ^ P.m.m.V.I.m.H.K.[ % B W ..W C B - e [ } [ Q t T H.[.}.H.#.c.;X'.:X'.@.j ! { ] $.q , ! 0.i.z.F.] 1 ",
"=.N z ,X{.+X,X(.Q.*.3 v B @ H B.d.G.I.G.N.[.e.D (.;X.X:X;X X^._ 0.G.n.n.$.J 4X4XJ.G.Y.L D.'..X.X$XZ W 3.>.:.x 5 Q =.` U j q x +.",
".X.Xo.=.XX.X(.OX$X(.j S u.u.K K d.H.m.i.b.H 4 .X;X:X;X;X&X1X;X5.r.qXI.Y.4X%.N.3X4X4Xz.t /.'.).;X`.C  X:X'.$X*.x.-X).(..XB W ;XoX",
")..X6.W _.:X;X.X-XOXJ q.Y.I.F.K r J J G , o j .X(..X:X1X;X:X.X6.e.qX4XF.M.! ! N.e.^ r 1 B '.>X;XO.,.>X).;X'.<.1.$X%X_.$XW <.&X^.",
"&X(.(.o.-.XX.X;X'.OXR { G.G.n.m.5 x i.a.k.z.v -.:X,XOX:X$X;X1X_.x Q %.&.U x h 5 ^ 0.i.k.U a b z X W .X$X-X-X@.Z Q.5.5.6.p 5.;X$X",
"$X_.).o.*.1X X;X:X_.v u.G.G.I.d.R }.4X2X4XH.N.h Q j..X:X;XOX;X/.g ] y.m.K.F.i.{ 2XP.m.m.H.3 r ] [ ) %.-.3.Q.f a B Q T x & 1..X.X",
"$X&X Xo.C .X.X'.-X2.x I.m.I.J.a.] [.I.I.R.V.!.Y @ n E W @.:.1.N ! 6XP.B.3XG.n.} m.m.m.m.d.J K.9X8XY.n.r.o.g a XXOX.XOX{.:.=..X(.",
"$X$X`.f $ U #.o.Q 5 Q N.m.I.I.a.Y }.P.T.I.[.[.U i.I.J.d.q.' R 4 q.K.G.Y.P.I.H.H m.G.m.N.&.S qXI.Y.4X4XY.K.i.R .X;X&XOXOX.X_ /.(.",
"c.+.d + R u.k.z.z.T 3 ) #.Q e.$.$ j ! ' $.>.D : G.9XY.5X9X4X4Xi.0.m.P.m.m.G.H.e h ! ! D 1 ^ 5XY.4XY.4X4XY.F.` (.:X;X1X:X:XX.3.'.",
"D Y R S qX4X4X4XT.i.*.3.2.5.B < ^ n.r.$.r 8 [ ( 9.Y.I.T.I.I.U.N.J P.d.I.G.n.h D e.i.k.n.e.$.9XR.6X5X5X4XY.Y.$.-.eX.X1X;XoXc.f Z ",
"I.4Xn.' G.G.Y.I.K.q.=.'.`.'.*...5X2XV.2X0.q.Y.m.~ g.5X4XI.4XN.$.8 } d.i.8.y t.qX7Xm.5XH.N.^ G.I.I.I.Y.Y.Y.Y.z.] .X+XOX:X;X1.4 u.",
"Y.G.k.( m.4XY.K.@X>.2.'.%XQ.B H.Y.G.F.K.u.' J.n.i.h J Q #.o.] T & o 5 3 O b.6Xm.V.P.P.G.q.7 e.H.I.4X4XY.T.I.m.Y c.1X:X'./.k u.9X",
"m.4XH.Y H.I.Y.4X[.&.a @.X.e [ 4XG.m.5XH.z.t Y ' Q < *.D./.^.).^.b W c.2.H M.m.T.V.I.g.J j l U U H ^ &.e.n.p.H.! z o.o.T L e d.P.",
"F.}.u.k H.H.J.K.4XY G ] R k [ N.H.I.n.b.^ < U #.z x /..X'.&X&X<.o.:X'.(.*.B ^ J Q D 3 ` .X:X1X_./.3.O.U L H Y l 3 ] q.p.K.b.K Y.",
"{ Y 3 e K.m.J.G.u.! m.d.B.d.H S v U H 3 . 7.'.`..X@.=.).;X=X/.o./.&X'.'.oXz i j.5.4.N ).>X#X'.;X:X;X>X>X{.c._ d G.G.G.G.n.i.r J "
};
