/* XPM */
static char *_2dd4005583b41acb929d8bd4e33913fePPaXSsqz5JLijSm[] = {
/* columns rows colors chars-per-pixel */
"64 64 128 2 ",
"   c #4C4545",
".  c #4D4749",
"X  c #4E484A",
"o  c #514646",
"O  c #514847",
"+  c #544C4C",
"@  c #5B4E4D",
"#  c #5F504F",
"$  c #544F51",
"%  c #5C4F50",
"&  c #565153",
"*  c #5B5354",
"=  c #5B5659",
"-  c #5E5A5C",
";  c #64514F",
":  c #635454",
">  c #695655",
",  c #665857",
"<  c #6B5857",
"1  c #645759",
"2  c #6D5758",
"3  c #635B5C",
"4  c #6C5B5B",
"5  c #735D5C",
"6  c #7A5E5D",
"7  c #75605F",
"8  c #7A605F",
"9  c #635E61",
"0  c #6B5F61",
"q  c #666265",
"w  c #6A6365",
"e  c #676469",
"r  c #6A6669",
"t  c #6D696D",
"y  c #746363",
"u  c #7C6463",
"i  c #7F6867",
"p  c #726769",
"a  c #7D6768",
"s  c #726B6D",
"d  c #7C6B6C",
"f  c #6E6C71",
"g  c #756672",
"h  c #726E72",
"j  c #7B6E71",
"k  c #747175",
"l  c #7C7275",
"z  c #767479",
"x  c #79767A",
"c  c #7C797D",
"v  c #836664",
"b  c #836967",
"n  c #846B6B",
"m  c #8B6C6B",
"M  c #916E6D",
"N  c #85706F",
"B  c #8D706E",
"V  c #92716F",
"C  c #98716F",
"Z  c #846F70",
"A  c #896E70",
"S  c #847374",
"D  c #8D7272",
"F  c #847678",
"G  c #837A7D",
"H  c #897B7D",
"J  c #947473",
"K  c #9B7574",
"L  c #967977",
"P  c #9C7976",
"I  c #9B7678",
"U  c #927879",
"Y  c #9D7A79",
"T  c #A27977",
"R  c #A47D7B",
"E  c #AA7E7C",
"W  c #A4817E",
"Q  c #AB817F",
"!  c #B0827E",
"~  c #7E7C81",
"^  c #817E82",
"/  c #807F8A",
"(  c #838185",
")  c #898284",
"_  c #868489",
"`  c #89868B",
"'  c #8B898E",
"]  c #938586",
"[  c #93878B",
"{  c #988C8C",
"}  c #8E8D92",
"|  c #918E93",
" . c #8F9094",
".. c #939196",
"X. c #95959A",
"o. c #98979C",
"O. c #9A999E",
"+. c #A68180",
"@. c #AC8382",
"#. c #AF8885",
"$. c #AF8889",
"%. c #B28684",
"&. c #B48886",
"*. c #B98A87",
"=. c #B58A89",
"-. c #BB8D8B",
";. c #BE918E",
":. c #A89A99",
">. c #BF9290",
",. c #9E9DA2",
"<. c #9496A9",
"1. c #9C9CA8",
"2. c #A09FA4",
"3. c #9FA0A5",
"4. c #A2A1A6",
"5. c #A6A4A9",
"6. c #A8A6AB",
"7. c #ABA9AE",
"8. c #ADACB1",
"9. c #B0AFB3",
"0. c #B2B1B5",
"q. c #B4B4B8",
"w. c #C18F8C",
"e. c #C1918E",
"r. c #C49492",
"t. c #C89693",
"y. c #C69893",
"u. c #CA9A95",
/* pixels */
"r.r.L _ 7.5. .5 T E E C 7 ~ t ..X.O._ * M m + - t h 9   = 3.6.6.6.5...' 3.4.,.2.3.,...q  .,.,.X.h 3.5.,. .- ( _ - & t q 3 P u.u.",
"e.e.#.F 2.5. .= p S ^ / p = 9 k x z - 3 p q - o.6.4.o.- q 5.6.6.5.5.O.( 3.,.2.2.,.,...& - z x k = r z k k w & q } ..( & B r.t.e.",
"-.-.*.7 z ~ k | 2.7.7.2./ ` 7.7.4.O.h o.3.X.t o.2.O.O.t q 5.6.5.5.5.3.h O.,.,.,.X._ r u V b =  .O.k = X.4.4.z ( 9.7.6.s K *.*.w.",
"I K V 7 u 4 z 5.2.5.2.2./ 1.7.7.7.4.( X.o.o.k _ o...( = +  .5.4.3.3. .+ z } _ x f q , =.e.;.F 2.6.,.c 3.4.3._ k 4.3.O.e > C T T ",
"J n 2 &.r.%.G 2.2.,.2.,.G ,.5.5.4.4.z ( o.X.f & h k l l t * q r k k p 2 + - ^ O.5.4.F &.*.&.N X.4.,.f _  .( e X f z t X 8 B ; 5 ",
"*.%.m %.*.%.s X.2.,.,.} = ^ 2.O...^ 3 - z k 9 _ 4.6.8.8.7.h # W %.=.e.w.K x 6.7.6.5.( C Q L : r c h 0 d 3 i B 0  .3.3.f Q ;.8 T ",
"K m : m K m % q z ~ c 9   * p 1 k | X.O. .z r 7.8.7.7.7.7.` b w.w.-.-.-.%.l ,.,.O...e @ 8 V W Q L # Y -.b R =.F 5.6.5.W 7 b # 5 ",
"* ~ } | _ 1 n V * _ o.' = Y =.n O.8.7.7.6.,.c 5.7.6.6.6.5._ ; P T T T T m + 9 f k t & 8 ;.r.r.e.;.n P =.B P =.N  .O.' t h _ X._ ",
"k ,.5.5.5.U +.-.d  .o.o.p W -.U X.5.5.4.4.,.t } 6.5.4.2...e : 6 n 8 @ @ * + + _ 4.7._ B w.*.-.*.*.n 8 W 7 8 C w k r & ' 7.7.6.6.",
"~ X.5.,.2.^ ^ =.d ~ <.X.r V %.m k ..| _ c t : = h k z t * B e.t.r.;.6 L ;.Y k 7.7.6.o.n ! %.Q I B 0 = # + r ..4.7.O.t ,.7.6.4.4.",
"h z ` _ ^ 9 J @.y - z h w 3 2 > : * y n : Y =.@.7 h X.X.w %.w.w.-.-.m &.-.#.l 3.5.4.,.9 8 v y ` 3.7.6.' 9 o.7.7.6.5.^ X.6.5.5.4.",
"* : n K Y m u 4 h _ r x 4.o.3 P e.m @.;.m *.e.w.P ~ 3.4.c C *.w.=.%.u W &.@.7 ( .._ c r & + ' 0.0.8.9.7.( X.7.6.5.5.~  .6.4.4.3.",
"$ w.t.t.r.r.#.0 ..5.X.` ,.,.x R w.V R %.8 T %.%.m - ( _ 0 # b M u 5 + v J n * w _ o.2.6...w 3.8.8.9.8.8.} ( 6.4.O.} 3 9 ' ' c r ",
"4 ^ w.w.;.-.-.n ' 3. .z O.O.s v ! 8 7 y + : 5 < 2 4 : - T ^ ^ ! J 6 W Y u   t 4.7.7.6.6.2.l O.8.8.8.8.8.X.= k f - , 8 v i & 7 L ",
"v C *.*.-.=.%.y r ( f + t z s l y h O.O.O.| 3 D -.e.R m t.t.r.w.#.L -.>.;.a z 5.6.6.5.5.4.k | 8.8.7.7.9.X.7 W P < Q e.e.e.b P *.",
"2 ; M M b u y c ' .. .r 9 ,.7.7.( ..8.7.6.5.^ R -.-.@.J -.-.-.-.@.D =.-.;.+.k 3.4.6.6.5.4.w x 7.7.7.7.7.' N ;.*.v Q &.&.*.V 8 T ",
"0 @ A ^ ^ v F 2.4.4.4._ ' 7.7.6.' X.6.4.4.4.` B =.%.T 6 @.%.E E b a -.-.=.=.j X.3.3.3.3._ & & _ O.3.3.X.r 5 E K # 5 m m v y s H ",
"| A e.e.u.E [ 6.4.4.4.( ' 6.6.4.z ` 4.4.4.O.t @ u n y * 2 8 Z ^ g y =.=.=.=.Z x ,.X._ z t t # * j p q d 4 + d _ | ` ) G 9 | 6.6.",
"| D =.-.*.m g O.X. .( - t _ c r # 3 z k f r x c r X.2.X.9 _ 2.2.,.d %.=.&.$.m   = f W  .5.6.' N $.L i =.@.s ,.8.8.8.7.5./ ,.2.2.",
"~ : M M m 5 : = 3 d , , W W 4 4 @.#.Q Q n r 4.:.` 4.5.4.^ X.5.2.o.p R %.@.J y * = ,.7.7.5.5.o.D $.+.D $.$.F 5.6.6.6.5.5._ ` o.o.",
"S D J : 4 *.>.u V e.&.v &.;.L M w.w.w.w.*.F 3.o.( ,.2.,.z c ,.O.} + 6 m i G O.X.h ,.5.5.5.5.,.N @.+.m #.@.S ,.6.7.5.5.5.c * h l ",
"y.>.>.J m -.-.J B *.#.7 C Q m ; m M C K C 4 ( ( q } ,.} q & e r 9 9 = & } 5.5.3.~ X.5.5.5.5.,.0 K B 2 Y I 3 ' O.o.O.O.` = > +.;.",
"-.-.-.Y a %.^ v # n N 0 3 4 @ q W ' h * G ..O.O.} ( q f X.o.( 3 | 4.O.c 3.4.4.4.` ~ 5.5.4.,.( q s s 3 * 1 : $ f c r - t w n -.=.",
"=.$.$.J # b S U t r 5.8.7.O.t ..7.3. ._ q.q.0.0.8.8.~ } 7.4.4.( o.2.2._ o.4.4.4...= ~ ' z e ..7.8.7.3.h Y $.d X.7.O.s o.O.d @.=.",
"Y A u p } ,.2.5.X.^ 8.8.7.7...` 3.3._ o.9.9.7.7.7.7. ...4.4.4.` ..2.,._ } 3.4.3.' & . * 5 w 6.7.7.4.5.( R -.D o.4.5./ } 3.k m E ",
"s } k ^ 5.5.5.2.,.~ 5.5.6.7...~ 3.,.( O.7.7.7.7.6.5.'  .4.3.2.( ` O.o.~ e X...~ ^ ..c N ;.H O.6.4.7.5.c m %.A } 5.4.' t _ q   @ ",
"_ 8.o.^ 2.2.5.2.o.e | 2.,.O.( 9  .X.r  .7.6.4.4.,.X.q k 3.3.X.e - k s *   3 w = X.5.X.j #.D c O.o...( 3 : b : r } } z   = k W f ",
"c 5.,.k X.,.,.} ~ = = g l r & 3 f - & f z s l l e 0 D 3 q k - 4 K +.#.J 4 +.=.n  .3.} = 7 :   = 0 , * ( o.X.( : n a & k O.3.3.3.",
"c | ,.3 = q = q } ,.h L =.@.y  .O.f ' O.z # W ! m : J g ~ ' e J ;.;.;.@.b =.*.V r z e f W ` z y =.R c 9.7.6.,.F &.&.a X.3.3.3.,.",
"e * r 1 7 a , ^ 5.1._ L =.%.d _ ..f _ O.c + b N F p - <.8.8.} u &.=.@.R @ u m H ~ - ~ 7.3.5.O.U -.W ` 5.4.5.2.l E =.n ' 3.3.,.o.",
"a L #.r.r.y.#.c ,.,.k 1 n n * r ^ f f t c ` e _ 4.3.~ ,.5.1.h + b m a d k q k 5.3./  .3.3.3.o.S %.P p X.X...} 3 6 C : t X.` z 9 ",
">.r.e.-.-.-.&.0 e e f ..,.,.~ } 7.7.4.z X.6.`  .,.o.k z / ~ ~ ( 9 s X.2.4. .( 4.3.' z X.X. .c # 8 4   = h z z 9 + v n + - s 3 * ",
"&.*.*.*.w.w.^ s } z } 6.6.4.} } 5.5.4.( ~ X.f e ~ z c l e O.7.7.' _ 2.2.O...f o.1._ , j y % A ^ *.E M j 2.2.2.,.j =.-.a ^ :.{ u ",
"M K T R C T v t 3.} _ ,.3.3.( t ....} w & n L P p _ 7.7.) ,.4.4.| r | | _ h $ f g 0 %.r.=.m *.t.t.w.&.F ,.1.2.,.F &.&.n F ] F + ",
"g : F ^ 2 0 h t _ ~ = f f h * : D U n * L w.r.e.@.| 7.5.' c | _ r + + * q c } ..l 5 -.-.*.M %.*.-.*.%.a | ,.| ^ 3 V m : 9 ) ' ` ",
"5.~ 2.2.c o.5.1.q w K 4 4 W L b *.=.-.b K =.*.=.E F O.,.c + r c _ | t e 2.7.5.5.2.m ^ *.%.8 m E ^ E T % = r x | X...^ 1 o.8.9.7.",
",._ ,.,.c X.1.,.k 8 R 5 4 R m # m K K 2 < m m b a w h q + s 4.7.5.5...z 4.4.4.2.,.r 6 C v * r r 2 2 6 @ * o.9.7.7.7.4.x O.6.5.4.",
"` 9 z ~ - f ^ ~ - 1 m A 6 * l G x * l | ` s * ' 5.7.7.o.r ` 5.4.2.2.o.k o.2.o.| ~ r l ^ 9 _ 8.5.a C w.T ^ 8.6.6.4.6.4.( G 4.,.,.",
"J T ^ ! K 0 } 1.j %.t.t.#.l 5.4.4.c o.5.4.o.x 7.7.7.7.9._ _ 4.1.2.,.o.9 q k k c r ` 5.5.' | 8.7.| T -.*.^ 2.2.2.4.4.3.r   q q 3 ",
"w.t.t.t.w.^ 6.6.` @.r.-.&.G ,.,.2./ | 2.2.o.k 4.7.6.7.7.( 9 } ..} _ h - ( O.5.7.o.' 2.2..._ 6.5.o.J =.^ u | <.' c z r 8 B J < : ",
"&.-.-.-.=.F 4.5.( P -.*.#.d X.o.O.h c O.X.` * z ` ` ( k k s q 9 ^ | _ c 8.8.8.5.O.x 1.,.o.~ 3.5...5 I m o : D B 4 @ W y.y.e.W > ",
"v I @.%.T * _ ` w < V C n 9 z c r 3 r l x r   + n L J q X.5.} ( 5.5.2./ 5.6.5.1.~ + f ( ~ = k ~ w o ; b 7 N e.e.*.u %.*.&.Q m + ",
"@ o : 4 3 & * +.=.W 7 $ ' 4.4.O.r _ 6.6.6.4.c n ;.;.;.F X.,.} _ 5.2.2.s c _ k r 4 7 , + a u % L #.B n e.@.C *.e.;.n C T D c W ~ ",
"_ * t ` X.} d >.;.;.W w 4.7.6.4._ _ 6.4.4.4.' m =.%.Q y z ' f q | ` ^ x c - > %.r.r.*.m -.%.u &.;.+.8 E J : B P C 4 & * ` 3.7.3.",
",.s o.5.4.,.S &.;.=.Q s ,.5.4.4...c 4.4.4.3.' , m n 5 X + i L 7 $ h ,.8.8.| m -.;.-.&.m &.#.6 K R L O , ~ ` k # W ,.' r 5.5.5.4.",
",.c } 4.,.,.k #.-.-.W 0 ..5.4.4.} 3 ` } ` ( e + c X.X.t n y.y.=.0 ,.6.6.6.X.y E R T M : M A q d F l w l 3.3.,.k <.6.3.c ,.4.4.4.",
",._ _ 1.,.,.r K &.Q m O q _ } ' t O + * r l k 9 o.5.3.' P ;.;.*.n X.5.5.o.h * @ 4 l ` } r r 5.7.7.6.O.( 3.O.O.~ X.3.3.k ..4.2.4.",
",.} q ..o._ + @ 8 7 p * x ,.X.f + 3 c X.4.4.2.c ..3.,.' V *.=.=.b f ' c ^ | o.h ` 8.8.8...~ 6.5.4.5.,.c O.X.X.t _ 3.' # k 2.2.2.",
",.o.= $ - - *   z O.4.` ..q.0.4.w X.6.4.4.O.,.( _ ,.,._ 8 ! *.F 0 - $ ( 5.5.2.` ..6.6.6...9  .4.3.,.o.e k z e - e q s h 9 ..4.O.",
",.X.3 q _ 4.4.s ' 5.4.X.' 0.0.7.( o.2.,.:.2.o.z q }  .k + 8 i W ,.5.x ..5.2.2.' ( 4.O...k O + r x c t r X. .e X.4.c 6.7.' c O.4.",
"o.~ c 5.8.8.8.} ( 4.,...` 7.7.7.~ ' o.o. .( k q e h - t ` h k 6.6.5.} ( 2.:.X.k & t q * +   h X.4.5. .( 6.4.G ,.4.' 4.6.O.t X.O.",
"r t 4.7.6.6.6.} 3 ( ( t r 6.7.7.r 9 x t & q ..5.7.6.( ' 7.O.c 4.4.5.} 9 ~ ~ k q + n W Q L , X.4.4.4.O.~ 4.,.z O.5.^ 4.4.O.- r ( ",
"= z 5.5.5.,.,.z q s z t & t z k x ..4.O.r X.0.7.7.7.2.W 3.3.k ` ,.o.z w ( o.4.2.k Q ;.;.&., x  .} ' z & x c - k c & h ' l + - c ",
"_ r ,.o.} _ q z 5.7.7.6.c _ z k 7.7.5.4._ :.7.7.7.7.4.z ' _ - $ r - t 4.6.4.2.O._ 7 b n u 4 N N 3 q  .k w O.X.3 # i i y 1 q O.6.",
"} & - k ..4._ _ 6.4.4.3.( X...( 5.4.3.3.(  .7.5.6.7.X.3 = & & ( ..h c 4.4.2.3.,.} : m L 7 Q e.e.K _ 8.O.c 3.4.c B e.e.e.W x 4.4.",
"F D 0 } 7.6...z ,.O.X.} f .. .k O.3.3.o.t r 4.4.,.` k ` O.' k 3.4.X.z ,.2.,.,.,.( V e.w.J P =.&.P ^ 5.O.q ( ` r 8 Q ! ! P q .. .",
"$.-.L _ 2.1.~ $ w p p y % g z = k ( z q * + q k h _ 4.7.5.4.c ..,.O.r ..,.O.X.( - 4 W W 7 @ u N u = l t w k ( ` W x i < 8 u 0 y ",
"@.@.m * t r Z R #.;.e.-.A h ,.' + 7 P #.-.Q * & o.7.5.4.2.,.k t ` ( $ q _ ~ z ~ ' k @ 1 t W  .O.,.~ + c 4.7.5.4.3.3. .0 =.;.N v ",
"n 3 c ..c 4 w.t.y.r.;.-.I } 7.,.y =.r.e.;.;.n q 4.5.4.O._ h w v 3 : D : - ` 4.7.7.3.q ~ 7.9.8.7.6.,.t ..4.4.4.3.3.,...w Q &.m , ",
",.c } 5.o.Z -.w.;.-.=.-.V z 3.,.w T =.%.@.W 8 # ' ..^ x ^ q V e.Y V ;.P ^ 5.5.4.4.3.c } 3.7.3.7.4.3.k } O.,.,.3.O. .h & N u 0 O.",
"5.| } ,.X.a @.-.w.^ R K 1 + h h & , y 7 u * w l x = z 4.7.X.N =.R m =.T c 4.4.2.3.3.~ ( 6.6.6.4.5.O.- r  .' _ c r s ' O.2...k 5.",
"2.} ~ o.} * v M C m M 6 k k x o.o.' * J &.B ` 4.O.h ..7.4.3.w b u ; I K 3 } X... ._ - - ( ' ` ( c f t z 9 f _ f = O.9.7.4.O.c o.",
"} c & 9 9 $   6 E t.t.&.| } } 6.4.6.G R =.R _ ,.O.c ..4.4.` e p w = * : 9 s x ^ _ z *   z  .} k q 1.8.8. . .3.3.x 4.4.4.3.3.k k ",
"y 4 + t X.O.4 C t.w.-.*.[ } } 2.4.4.` V =.R l o...r k o.( c 4.8.7.,.h x 5.6.6.6.3.3.W 3 3.6.6.X./ 6.6.6.3.' 3.3.W X.4.4.O...3 & "
};
