/* XPM */
static char *_76481fbfd8648ad82f0929404ae969239aAvfGALAJyS4km[] = {
/* columns rows colors chars-per-pixel */
"64 64 113 2 ",
"   c #322C30",
".  c #373033",
"X  c #3C3336",
"o  c #3D363A",
"O  c #3E393C",
"+  c #453636",
"@  c #473937",
"#  c #413638",
"$  c #4E3638",
"%  c #433A3C",
"&  c #4A3C3C",
"*  c #503739",
"=  c #513D3B",
"-  c #5A3E3E",
";  c #4F413E",
":  c #54423D",
">  c #5A453E",
",  c #60443E",
"<  c #62493F",
"1  c #3D3A42",
"2  c #443D42",
"3  c #4A3E42",
"4  c #453F48",
"5  c #523F41",
"6  c #603F40",
"7  c #3A4362",
"8  c #464145",
"9  c #4B4244",
"0  c #46434B",
"q  c #4C454B",
"w  c #4E494E",
"e  c #534445",
"r  c #5B4544",
"t  c #554947",
"y  c #5C4A45",
"u  c #52464A",
"i  c #59474A",
"p  c #544A4D",
"a  c #5B4C4D",
"s  c #5D514D",
"d  c #444553",
"f  c #4B4751",
"g  c #4D4A52",
"h  c #4E4D5A",
"j  c #504751",
"k  c #534D53",
"l  c #5A4E52",
"z  c #534F59",
"x  c #4E5159",
"c  c #555155",
"v  c #5C5254",
"b  c #5E5857",
"n  c #55535A",
"m  c #5B555B",
"M  c #56595F",
"N  c #5D595D",
"B  c #614040",
"V  c #634C45",
"C  c #6B4D44",
"Z  c #614649",
"A  c #634C4C",
"S  c #6A4D4B",
"D  c #6D5146",
"F  c #63524D",
"G  c #6B534D",
"H  c #6B594F",
"J  c #72554C",
"K  c #745A4F",
"L  c #614E52",
"P  c #6E4F51",
"I  c #724E50",
"U  c #635454",
"Y  c #6A5554",
"T  c #655955",
"R  c #6C5A55",
"E  c #62565A",
"W  c #69565A",
"Q  c #635A5C",
"!  c #6B5C5C",
"~  c #715652",
"^  c #735C54",
"/  c #7A5C53",
"(  c #725D5B",
")  c #7A5E5B",
"_  c #6C615E",
"`  c #756056",
"'  c #786056",
"]  c #72625D",
"[  c #79635E",
"{  c #77685F",
"}  c #7A6A5F",
"|  c #565562",
" . c #5D5661",
".. c #565861",
"X. c #5D5B63",
"o. c #53576F",
"O. c #645761",
"+. c #635C62",
"@. c #6A5E62",
"#. c #625E68",
"$. c #5E6065",
"%. c #656164",
"&. c #6B6264",
"*. c #64626A",
"=. c #6C656A",
"-. c #6E6969",
";. c #736563",
":. c #7C6462",
">. c #776860",
",. c #7A6962",
"<. c #716669",
"1. c #716A6B",
"2. c #696870",
/* pixels */
"U U L l p c c w p c p U G U i V S D G F A a p l v v ! Q l m f j m m m  .O.#.#.*.*.#.*.X.+.X.N n n x c n ..x ..2.*.*.*.%.N E E E ",
"j u q q w v ! ! b ! v U U F p t A V V r s ! ;.>.>.>.<.,.m m j j O.O.O.O.O.#.+.*.*.+.M N X.%.N n b x ..$.$.X.X.*.*.*.$.$.n k k l ",
";.O.l a l c Q ! Q Q b p U a t t A V V V E { >.>.;.;.:.<.E j l f m Q E  .m m m n n m  . .b N m N %.N n $.X.$.....o.....o. .O.O.@.",
"O.E l L U s p b c s w p a i S J G G ~ ) R _ ] >.>.;.( @.E g k q z E m l g 0 0 n z k p u q q w v v n f M $.*.$.*.$.2.$.*.=.=.=.@.",
"E l u u L L w s T R U U ^ Y y Y R ( [ :.[ ;.:.] ( ;.@.! ! z E z 4 4 j 4 2 j j 4 e A P P G F T ! ! ! m  .*.*.=.=.2.*.*.X.| n m m ",
"! O.W q i u p T ! ! T R ^ ( a R ( ;.;.) [ [ ] ! R E E l l k z f 4 L O.L l q l L u Z Z Z i a R R T s v n M N M X.X.m M n z m  .O.",
"Q W O.E i i w c W R T U / ' U v b E E E E U v a q v U E E E O. .4 O.L l i 4 3 3 3 3 e i i e e t u v &.@.k m *.%.%.#.X.N  .O.m m ",
"m E l j w v p s v T T U ^ ^ ^ p b E _ ! T E E v k j E E m m j k 4 5 4 3 5 i i u a l A G G F s y y a T T ! b m +.+.+.+.+.+.O.v z ",
"q w c w w T b p v a F ` ` ` ` H E %.@.Q E v j i q 4 i l l 4 L L L O.6 4 u i L i L L S Y G G y V J D v ( ( W l n N M n n z z h g ",
"g c c c 8 s s s ^ U F ` ` ` ^ T p v v a u i Z S Z 5 5 j u u i l L 6 5 4 q i A L P A y y t s K / / ^ A a p U ( W l z m  . .X. .m ",
"x q x w t b _ F F p s H H R H ^ R ^ ~ Y Y S P I I S 5 i i 4 3 q u j z 4 3 u p i A l a G G G H K ~ ~ J ~ A l U v m m E  . . . . .",
"w 0 w w 9 t s s F a H F s H ^ ` ` ^ ^ W W Y A S S Z i i 5 5 2 9 l  .O.O.q v E ! ) [ ^ / ~ H F T T G / / / A 9 p v z m  .m n n k ",
"n M b M 8 t s s s > F H V H ` ` ( R T U L L 3 l P P W P A A u 9 z O.+.+.k m Q +.@.( ! G R R R T U s J ~ G G t 0 j j z z h h h h ",
"M N N N k O ; : : : < D J V y s s F U U L L l W :.) ) W Y a u q j z n Q k z Q N T ( ( ^ ~ R R s F F s A y t a i q f f z X.X.X.| ",
"M b N b M O ; t s < y > > D < J y U R T W W U l ( ^ P l t 8 8 g z z m +.Q c b m ! ` [ ` ^ F G R H R R H F a U y 3 q d | | | | | ",
"n M n n g 8 8 w : : > : > < < < y p a p i i a p j l j 2 w w q w v Q ! &.<.E k k k v v U s T R R R R R G a e i u q j f | | | o.X.",
"0 g q q 2 1 2 8 & & : : ; ; : : : : w s T T _ b _ b n q w c g w m Q @.&.&.&.g Q ! ;.;.;.T U R R R R s t a a y a 9 w q d h z h | ",
"n n z z f 8 o o % 2 % & > > < V D F p _ _ _ _ Q b b n w w n c w p z v n v m g v &.&.&.&.T G T T R s F s F a p t 9 2 q z z g f z ",
"n n l k h 1 0 h z v g @ : , < V K K V s b _ N b n c c c w g c c b v v T E _ &.k +.&.&._ T R ! ` ` R F s p t 9 i t 9 k n  .z h | ",
"n n z g 0 O 2 0 q 4 1 5 < < D V J K K t w p b $.$.N _ %.N c _ %.+.&._ ! &.%.%.c k m v v w p s s U U U T U a ; & 9 3 0 z z z z m ",
"j 4 f f q 0 0 q j j j 3 y V C V < J H s s s c _ _ $._ %.*.b =.&.%.&.&.Q n m Q  .+.@.Q v v E k p b _ ] ] ! R U i 9 i p q 4 0 j z ",
"j z m l z p f u k k k 3 : y V r < s > T T T b n $.%.$.$.%.n n N b m b m c m +.+.%.&.&.N +.Q c c g b b v v l v a w k p p q 4 g z ",
"z m m m z k j g j j q % 3 & 3 r s < y H H T b s b b b $.$.N x c g X.#.X.m h 0 k n c j p n E @.@.Q N b x m m g w w w p 0 z g f z ",
"j z m z l g 2 3 3 9 e 9 l l 3 V D D y s T s _ b N %.%.%.%.$.%.$.X.x k n c c b w k v E b Q ;.<.=.-.&.+.m @.=.O.0 v m m n k n g f ",
"O.g k z z q e i r i e 3 2 u i r D J V F _ ` _ _ _ $._ $.%.&.=.%.*.X.b %.%.! +.b b T Q b N @.&.@.+.Q E z |  .h d x c k w h c n +.",
"O.h m Q E m 9 u i t i y e u L y y D G s ` _ ] _ _ %.-._ %.%.%.%.%.X.n %.@.%.&.N m m E m n  .N b m c h z X.h 7 o.X.X.n c n h m #.",
"k w n O.O.m p F L A A l A u A L r V V t s T T _ _ b c c m b O.O.Q N n n Q N b m k b O.@.&.%.+.m Q M #.2.2.#.h | X.X. .M n k f n ",
"g k g m Q Q k U Y Y L L L p q u 9 p s s s s s p q s b c l E Q W N N c g c b +.+.m M N M N N +.=.<.%.#.<.#.2.X.n  .#.#.O.n h k k ",
"g k k c E Q b q a A i p p c E v c v v U U U U a w T E E U p l @.! @.O.O.m E m n n E N b g Q =.-.&.+.N +.%.#.#.z n O. .Q m k k k ",
"w w v v p b U p i i p E ! T n Q Q ! Q v p a s v s p s U W L E ( @.O.O.+.+.+.+.m n N b n w m Q b v m Q  .N M m m  .m m n n q g k ",
"v p v ! v p U Y U F v E Q @.n Q -.<.<.&.s U T U T c s T W l l @.! O.v m E v z k w w p c v c w b E %.%._ X.b x O.%.+.k w k z z v ",
"z w T ! ! v U U U U s p Q %.+.N Q %.@.E v s U s s q p v U U l v v l k k z n E l s w v ! Q E w T _ Q b m Q b c m  .m l z l l n v ",
"c w v ! ! E p U v s p c Q %.=.=.n b g p W U l p q q w g k v W Q m E  .z ;.;.&.Q v v i v b k v v _ _ Q Q &.&.b m m p l v k c v m ",
"w w q p v p u a a a T E Q Q b Q &.-.Q v E l v v k v m N m  . .O.+.=.@.E O.#.@.l U v w t p p c p b _ b _ &.&.%.v E p l v w c n k ",
"n c b m c i U W W a E T ! _ Q &.<.;.@.k v E v g v m Q O.#.+.#.=.%.=.;.@.n @.%.n v v p p v v p s s Q Q b @.+.Q v v p l v c g k v ",
"b c m b ! p p U v i v ! ! ! E &.&._ ! v v E v q v m  .#.#.*.#.#.=.#.@.=.v g l p a U U p U U s s w s T b v Q O.@.( O.j E v k k N ",
"+.O.n Q ;.! v E E F s E ! _ Q +.@.&.E p c v z g k m  .X.#.#.X.X. .%.%.@.O.g v E R ! ( E p p 9 t t s _ ] b Q &.( ! U 9 w p 0 n +.",
"=.%.m v R E l l s R R v ! ( T v v E N b E m b c w d g z h | | | n n O.O.m k l E U W W W a p s G F c _ _ v c m m k k v c z q m #.",
"%.+.n p a i G W s Y R F U ] ! v c E b v k w q g 0 g m  .| O.O.O.X.d g c n c q k k v s p s s T T T p s T v b c Q @.v k w w f z O.",
"#.+.n l W l L W U A Y Y s E s u p p p k l j z v g n  . .O.#.O.O.m n N +.+.Q N m b m c 9 p p u p s _ { { { Q b b @.E c m %.#.| x ",
"=.=.=.z E E i L A i s Y i v Y Y Y U v U v v E m n j m  .E O.E z 0 z #.+.+.+.m k p a a i A y i F _ { } } { _ M p v z p +.=.-.=.n ",
"#.=.=.m u l k 5 l U v p p U T W U E E v v v v m k h n k q j l l l u k c n v w v T T W ^ ^ / ^ v T _ { { { _ s s c E m n +.=.+.h ",
"z m O. . .E j u v l p c E T W W U U v p q k k g k O.+.M k E W ( ( ! v v b b k v W U Y Y ~ ^ ^ F s _ ` ] _ _ b c c v Q n c  .m N ",
"=. .h n  .O.O.j w p a p p p a p 9 w w w f E +.m m N M x j Q ( ( ) ( ! ! E v p l U U F F A G Y a t s b b b b c w b k v n f m @.&.",
"&.%.n h h n  .X.N N %._ Q b _ b b s c w w c b $.%.=.=.%.N U ! ! ( W U E v v k w p p l F A G G A s s _ _ _ &._ M b b k m n b &.%.",
"Q m c n h h | X.X.*.%.Q _ _ _ _ _ w w c n c N *.=.-.-.-.%.z E Q Q E Q ;.,.;.;.n E ! ! ( R ( ^ Y T c _ { { &._ _ c b c Q Q c Q Q ",
"m m h d ..X...x n n M b b Q b _ _ _ c c c c n _ %.&.-.-.<.m %.1.<.-.&.<.<.<.;.E E ! ! ! ( ! W ! H c s _ _ _ _ _ p c k b Q k g z ",
"Q +. .h X.2.2.X.M $...M c b _ &.;.{ _ w k n x M =.-.-.1.1.+.O.=.=.%.%.<.<.&.! v c E Q Q U U A a e ; t b b s s t 8 s v k v w g Q ",
"n n l f X.*.2.*.X.*.$.n c b _ _ ;.;._ b c b n c %.-.-.1.1.-.m =.%.+.N N m b _ ! U w p u e i i r ; e V V C C C C B i v s 8 g w n ",
"j z  . .n #.#.X.x M M c $.N N b T Q T b c b c p N _ -.-.<.%.g k m c n b M _ _ ` R a i a a i y y y ; < D C C C C V 9 p s 8 g c 0 ",
"h O.#.#.| j  . .n h g c b b n b Q _ b R R ! R b c =.-.-.-.%. .n +.%.%.+.+.Q _ _ ` T u a a y y i r & + = > > , > > & 9 8 8 8 w 0 ",
"f f m O. .h h O.m n w w p w c b b b v U U U v p c &.-.-.<.-.-.m +.+.+.+.%.Q ! R T T u u u 5 % & & = - : + + @ + X + ; ; 8 1 f z ",
"z f z |  .m j z c s w 8 w 0 w s p p s T T s s v c %.-.&.=.=.=. .m Q %.Q O.@.v E ( ] ( A 9 u ; & : r 6 6 6 $ : : @ O % 1 9 q k n ",
"z j f z m m m j k w q O % ; O O u a T T R T v v w b @.@.O.+.Q m k k c m z v ! ( ) ( ) ( U a i & - e 5 - 6 = & & O O % ; 2 % 8 0 ",
"g h 0 f j z z 4 0 8 8 ; 1 ; ; O 9 i t s s U F l v 9 p l L L p W ( E b m m ! @.! ! ! ! ! W 9 p 9 3 y 5 * * $ o # @ ; ; 9 9 w 8 0 ",
"q f f 0 z z E z k p 9 8 ; % ; O # @ : e r t i u t w W T R ! U ! ( ! v Q +.W @.@.@.W Q U l 9 w q % % o & 5 e 3 9 w w u u u 9 2 1 ",
"4 f z 4  . .E z z k 4 2 X X .   . X # @ @ & % 3 9 u W ! R W ! v ;.( E l m z E v v k p v E U U a a i 3 5 u 5 2 2 ; O % % w k v v ",
"4 z z j j m j u q q q k j p q q p q e 5 5 5 3 u u 9 L U U E E i k l l 4 j j n v m m N ! ! T U v a e 3 o # # # 2 8 1 0 p T ! Q Q ",
"E j m m 4 g z m n v W E E v i q v k u 3 * & % 3 e 2 9 u i j l L L E l m E E +.Q N M c k l l q 9 2 3 5 i u i i l s w g w k k v E ",
"@.m k z z m v n z E E O.E v p 4 p p 3 # X 9 i 2 u l L U U W W L L L l l j z l k c c d n #.+.n 0 q e i i i i l a p w w c z j E O.",
"j l 4 j n m m v 8 q w w u q 9 % % p a s q v E p q q j p j a i u 3 q u q q k k z M  .M n #.+.*.w 4 2 3 q q u k k n v j k E z j j ",
"j z j f v n k k v U v q p U U a p U E U a 9 q q q p z l k 2 i l L L E E v n m v n M ..x n M X.x 0 0 p j p k v m m +. .q l L E j ",
"4 j l 4 0 w q E ! W T w v v l p 2 9 u p q 9 p Q @.@.@.+.@.z j O.W W U U v n n m M $.$.$.n x g g w w p j g k n m O. .O.g E L l j ",
"W P W m Q %.N v E v w O ; 9 % 9 t y y a A F l +.+.@.+.Q m v j O.E E v z c n m M $.$.*.$.$.N M n g g z v l v n n N M  .f j E E L "
};
