/* XPM */
static char *c074d0167d334e9a94696f6905b365b2OUQif772L5pQZtg6[] = {
/* columns rows colors chars-per-pixel */
"64 64 184 2 ",
"   c #3E342E",
".  c #3B3632",
"X  c #3D3936",
"o  c #3D3B3B",
"O  c #433427",
"+  c #43362C",
"@  c #4D372C",
"#  c #44382F",
"$  c #4C3A2E",
"%  c #51362B",
"&  c #533B2E",
"*  c #5B3C2E",
"=  c #403530",
"-  c #443B34",
";  c #4B3D33",
":  c #423E3B",
">  c #4A3F39",
",  c #533E32",
"<  c #5B3E32",
"1  c #623F32",
"2  c #54412F",
"3  c #4D4135",
"4  c #44413E",
"5  c #4C433C",
"6  c #544334",
"7  c #5B4435",
"8  c #5E4A36",
"9  c #53453B",
"0  c #5B453B",
"q  c #56493D",
"w  c #5C4B3D",
"e  c #654335",
"r  c #6A4435",
"t  c #624C36",
"y  c #634539",
"u  c #6C4738",
"i  c #634B3D",
"p  c #6B4B3C",
"a  c #744C3E",
"s  c #65523C",
"d  c #6C533D",
"f  c #74543E",
"g  c #71593E",
"h  c #3C3C48",
"j  c #413F40",
"k  c #454342",
"l  c #4A4644",
"z  c #4C4946",
"x  c #494749",
"c  c #4D4B4A",
"v  c #544740",
"b  c #544B43",
"n  c #5B4D43",
"m  c #514E4C",
"M  c #594F49",
"N  c #5C5145",
"B  c #54514E",
"V  c #5B534C",
"C  c #555353",
"Z  c #595654",
"A  c #5C5956",
"S  c #575759",
"D  c #5C5A5A",
"F  c #634D42",
"G  c #6B4E41",
"H  c #754F40",
"J  c #635344",
"K  c #6C5444",
"L  c #6B5945",
"P  c #62554A",
"I  c #6A5649",
"U  c #65594D",
"Y  c #6C5B4C",
"T  c #745443",
"R  c #7B5443",
"E  c #745B44",
"W  c #795B46",
"Q  c #735649",
"!  c #735D4B",
"~  c #7A5D4A",
"^  c #625751",
"/  c #635B53",
"(  c #6A5D53",
")  c #615E5C",
"_  c #725F51",
"`  c #6F604F",
"'  c #776146",
"]  c #7B6144",
"[  c #75614D",
"{  c #7C634D",
"}  c #6D6153",
"|  c #64615E",
" . c #6A635D",
".. c #746453",
"X. c #7C6552",
"o. c #776854",
"O. c #7B6955",
"+. c #72665C",
"@. c #796658",
"#. c #74695D",
"$. c #7C6C5A",
"%. c #7F705D",
"&. c #585C68",
"*. c #605F60",
"=. c #656361",
"-. c #6A6663",
";. c #6C6966",
":. c #6E6C6A",
">. c #726C65",
",. c #786D60",
"<. c #726E6B",
"1. c #797067",
"2. c #74716D",
"3. c #78746F",
"4. c #656877",
"5. c #757371",
"6. c #797673",
"7. c #7D7976",
"8. c #7E7C79",
"9. c #805948",
"0. c #81654E",
"q. c #83694C",
"w. c #8A6E4E",
"e. c #8D714F",
"r. c #816651",
"t. c #846B54",
"y. c #8A6E54",
"u. c #836E5A",
"i. c #8B6F58",
"p. c #877057",
"a. c #8C7255",
"s. c #84725C",
"d. c #8C745B",
"f. c #8F795D",
"g. c #917554",
"h. c #937856",
"j. c #93775A",
"k. c #957A5C",
"l. c #997D5D",
"z. c #837462",
"x. c #887760",
"c. c #8D7B64",
"v. c #8B7E6B",
"b. c #947D62",
"n. c #9A7F60",
"m. c #817C76",
"M. c #827E7A",
"N. c #9C815F",
"B. c #958166",
"V. c #9C8364",
"C. c #928068",
"Z. c #9B856A",
"A. c #9E896C",
"S. c #84817D",
"D. c #89847E",
"F. c #9B8B72",
"G. c #A18664",
"H. c #A48966",
"J. c #A18768",
"K. c #A58C6A",
"L. c #A88E6C",
"P. c #AA916D",
"I. c #A18D72",
"U. c #A69174",
"Y. c #AB9472",
"T. c #AE9877",
"R. c #AF9878",
"E. c #B19876",
"W. c #868481",
"Q. c #898682",
"!. c #8C8A86",
"~. c #8E8C89",
"^. c #918C86",
"/. c #918E8A",
"(. c #94928D",
"). c #99948D",
"_. c #8C8F97",
"`. c #969491",
"'. c #999691",
"]. c #9C9995",
"[. c #9F9C98",
"{. c #A09C96",
"}. c #A09D99",
"|. c #A2A09E",
/* pixels */
"'.`.l k Z C o Z ) D x m 6.M.:.o C D Z : l j c S./.!.B Q./.~.C o l 5 B ) Z ) |  .B , J P m m D D 4 6 ' { ! 5 z >.3.) B ^.(.D !.(.",
"(.`.l k Z C o m D m k m ;.6.S k m C C c o l c Z | D z D./.`.Z l D k m.~.Q.~.c w X.O.U ) 8.S.Q.(.Z w k.l.B.b i [ O.P 4  .-.b W.`.",
"7.5.k o C m : k Z D j 1.(.'.<.k D D D D o c S C o c k Z -.:.k c D x Q./.~.).V d a.j.( 5.~.~.!.'.D s k.l.A.N K t.d.Y 6 ! ! n A <.",
"u.@.5 6 ! ! n l ) *.k <.(.'.6.j D D S =.o c D m : Z A B l 5.:.D C j 7./.~.(.B 9 X...5 7././.~.`.D 7 h.k.V.n d y.d.P y X.X.O.3 { ",
"N.V.q d { r.L k ) ) j m <.;.Z k k C Z m : C ) m o C Z m =.(.(.`.D o B <.2.:.c 8.!.Q.M 3./.~.~.!.C - L L P l q L Y 4 7 { r.@.6 g.",
"[ [ 3 8 I J l o x : 6 0 X l Z *.m m.^.<.C ^./.^.c > v > D ~./.Q.S k k x z k z !.'.].;.C 8.6.-.C c 6.S.D z A C 4 c z 5 n P U 5 g ",
"- ' s.O.V : C Z Z > u Q X m ) -.B D.).!.B (.).{.V * a a y U A l c Z D Z C l 3 | <.<.Z 5 P I ! b / (.].2.l D ) k Z A | k -.Q.W.S.",
"# e.V.H.s.: C Z Z : e H . x ) ) m 2.^.M.l m.^./.m 1 a a a T 9 k Z S D S S : 8 p K n ; E { { i.J D (.].2.o A C o B D D k 2.(.(.|.",
"  d { { J 5 l l n 0 0 9 h 4.7.<.k k ) S m m D Z C P F p p d > 4 A D D D D > u T ~ K 7 W { 0.i.n z S.M.A 4 ) ;.<.B V ..V | M.8.8.",
"4 , f K 6 w.[ 6 T Q ~ > &._.`.'.l m ) D D ) ) : 6.~.Q.2.> J N b l c B Z c   e E ~ J , ~ 0.{ r.9 3 N V 4 7.`.'.}.2.] K.Y.} - w F ",
"6 7 T E ; e.t., T T W : =.`.`.`.l x ) ) D D *.j 6./.(.Q.0 k.V.A.N 8 a.j.+.- J .._ 9 # K L J n > s O.%.5 D.].'.{.8.' L.E.v.% a R ",
"9 @ p I q J N - U ( b : x =.-.-.: k D D D D D : ;.).(.8.8 N.G.U.Y d k.G.c.b Q.^./.D ; K Q ! ` $ g a.f.N m.'.'.].m.d K.Y.v., u T ",
"n 3 5 S.^.~.m Z !./.;.k Z S c 5.7.<.5.C x m c j k ;.6.D ; t.k.V.N t k.G.f.V ^.(.'.-.6 { 0.~ u.; g a.d.b | D.!.D.;.3 X.p.( 5 6 i ",
"l.O.V (.'.}.C -./.`.5.k S D ) /.`.(.].=.x C C C - < G 9 : M V ( z 3 { p.` 5 S.~.^.) & W { W [ > t { [ 5 c 5.8.5.q o.d.f.b.$.6 t.",
"N.f.N ^.).`.m D Q./.;.j S Z ) /.`.(.].-.k S Z D > r R v x D S D A o c V l o ` o.#.m ; ! X.X.( ; ' a.k.U :.`.`.(.P N.K.K.K.F.0 e.",
"p.` 5 /  .Z C :.:.D l : l k c W././.'.*.: S S D : r R 0 k D D D S 4 B D m $ q.a.j.! L H.P.P.A.3 a.l.V.o.:.`.`.`.s N.H.G.H.I.9 g ",
"O.t.U 3 A 4 6.).`.A 8 N 4 n n Z / D | N : x D -.D n 9 5 : m C Z c o z S z $ q.y.a.P L K.L.J.x.> ' p.a.J ) /./.Q.5 { k.a.a.$.3 s ",
"N.N.%.3 } 5 M.).]./ d J 6 { X.X.( - i 0...m Q.(.(.`.m 8 ! ! _ j 4 c B C 4 q L Y n 9 , L } +.:.S 6 g.B.%.l V ^ V b 5 3 ! u...3 w.",
"l.N.o.; U 5 2.^.~.b d q 7 X.r.O.@.; Q 0.O.) (.'.).[./ t r.r.u.5 x D S A 6 k.V.s., p K > 3.~.(.Q.t V.K.U.b * p H R F 2 g.N.C.2 q.",
"O.q.P . 9 q b x S c 5 l 9 L ! ! Y - T { Y V /.).'.[./ 8 r.X.u.: c S D C 6 k.A.z.& f Q 5 8././.W.9 h.A.B.9 * a a R F 2 a.f.O.3 d ",
"{ N.c.# d 0.! . S D k 2.S.M.-.> w F K K b 4 <.7.6.6.c 3 K Y J o 4 m Z x - L ` b # y I m ) >.:.<.| N } :.A N i y G > - K J n 5 # ",
"e.H.Z.3 p 0.Y o C D l S.`.)./.5 E r.q.w.[ : x m m c b U ! U : > J J I Y v - i L 5 -.W.Q.Q.m -.^.(.;.2.(.~.(.;.B 6.<.> y K f Q ; ",
"g N.s.  8 ! P N Z c : ;.8.S.S.4 w [ { { Y o c c x 4 { j.k.Z.5 s { r.{ t.U & Q ~ n m.)./.'.C >./.(.2.6.'.).].2.:.`.`.> u T T ~ 6 ",
"3 q 5 - t.V.A.J.A.v 0 Y ! ..^ l 6.D.S.) 4 C S D S 3 q.n.k.Z.6 p ~ { 0.u.J & R { v 7.'./.'.C Z M.W.D  .~./.(.=.:./.Q.: e H y w 5 ",
"' ' } $ k.L.P.P.T.q d y.t.a.o.m /.].{.3.k D =.| -.3 ] d.p.s.: 7 ~ ~ ! [ b $ d K - C 2.6.;.c v ( ( V 4 } #.#.Z z ) S k 5 > w I Q ",
"' O.$.$ h.L.K.P.Y.5 i y.y.a...b ^.].].2.l D *.) &.4 q P v m A A ( ) q q X.X.J q ..$.%.%.5 d { r.O.O.3 w.B.V.B.k m S S Z - K { { ",
"{ { Y # ] n.k.f.$.4 6 ! ` Y N : ;.Q.Q.D j Z B | 5.7.S.S.C -.~.~./.`.m { K.P.s.L P.P.Y.R.J d r.r.0.u.2 p.V.V.K.l C D S ) - p O.] ",
"[ o.} . 6 p w : c m l X c m c c k c ;.<.:.;.k M.~.(.(.].) 3./.`./.'.n ] K.P.s.{ P.P.L.Y.J t { { { [ # ] k.N.b.4 m D S S k ; s ! ",
"P.P.F.; e R n 4 S S S o S S S S k -./.(.(.!.B S.`.(./.].*.2././.(./.z s N.V.Y s k.j.s.$.) P Y n (  .) P P #.1.D m k V P V 4 N V.",
"L.P.F.; r f n 4 S S m o z C :.8.S ;./.~.~.~.B m.(.(././.C C 2.3.:./ 9 ; s N 5  .6.M.D ;././.7.m ~./.(.~.D !.(.(.W.6 ! X.t.N ! K.",
"J.Z.c.3 6 0 5 > N V U J 4 2.`.'.8.Z W.!.W.6.k D -.D D S c o 9 Y ( - r a T w A (.(.'.<.<.`.`.W.B /.`.(.`.S ~./.`.~.9 W r.p.P s G.",
"J L ` ` [ ..3 d a.a.g.k.J 6.`.(.S.k B m U o.@.O.} o c S A 4 8 { @.@ u a R n -.)./.].2.;./.`.W.l S.~.!.M.k -.5.:.-.4 F L Y q 2 E ",
"O W k.n.k.G.J d j.g.a.l.! Z 5.-.V n J # { N.N.N.B.: c S D 4 8 o.o.@ u a 9.n -.).(.].:.m 5.<./ 4 C 3.6.7.6.=.4 C 4 6 G I 5 < G I ",
"O q.l.l.k.A.Y 7 0.X.{ _ V : 9 p T E E 3 ] N.N.N.V.4 x S Z 4 6 ' ( + r a R , ) /.~.!.&.X 0 ! { Y D ^.).'.].~.z D 3 p T { 0 e H r.",
"O ] j.g.y.u.V X B >.5.7.-.- G ~ R Q E # 8 [ o.{ } l l x D =.) q n J 9 0 y > j ) D S c - K 0.q.{ V Q./.~.!.M.l C > e T W , 1 R ~ ",
"- 9 U P B B m j m./././.~.9 p T F n m z c z 4 :.M.W.5.C Q./.).B ] G.$.; p H F : m C S - d { Q I : b $.s.f.1.c | -./ I w v v Q I ",
"m 4 Z S D D S : M././.~.M.> 9 b C Z S D S D c D.(.(./.D ~.(.(.V q.H.c.& a 9.G : C S D k - N Z C c 6 N.L.K.U.} S.(.'.D.l 8./././.",
"S o C S C m m X Z 6.5.7.&.o m C Z S D D A *.5 S.(.(.(.c <.8.8.z s j.$.# u R F o Z S ) m o C A S S 6 N.K.K.A.A D./.'.W.k S.(./.).",
"9 0 4 > p p G 9 ) /./.'.M.: Z S S D D ) D *.4 >.D.S.5.j A D.D.8.b 3 n l 6 0 > . l Z S x o C Z Z S - Y o...U 4 | 6.7.) - ( +.+.) ",
"* W 9 & a H 9.n -.)./.^.8.o m S S Z Z Z C C l 4 #.c.C.| :.`.`.}.-.6 ~ ~ ! @.> < n k c m k :  .>.6.l z C C : m C ) Z : 7 ~ ~ ~ K ",
"% T 9 @ u a Q b z D =.:.:.=.D c k x m m C C m 9 V.P.T.%.) '.`.{.;.6 ~ r.{ u., r F k D =.A V (.(.).B c C S o B A ) ) X 8 W Q ! w ",
"# t [ I 5 3.S.S.W.c <.(.`.(.`.Z o C Z Z S S C q B.Z.C.` z 8.W.D.Z @ K ~ _ X.; u F k D =.D V F.~.S.c o U o.U 5 q Y U v 3 8 ! ..Y ",
"# g k.f.B !.(.(.`.A 7.'.`.(.].C : S D D Z C ) ) A 5 ' d.s.} m ;.| C m b v l X 7 0 X m m c 5 V B B B 3 h.G.K.w E i.i.d.w T k.V.A.",
"# d y.{ c 8.!.!.~.B 7.'.`.`._.m o m C m k 3././.!.3 g.L.Y.s.D ^./.~.^.5.o c m C c = F ; s q.9 c D D 3 a.J.K.N E g.i.k.n g l.n.G.",
"k 5 3 s 5 m | =.) 4 Z 5.5.5.:.k m 5.6.:.c Q.(.(.(.> { V.P.O.| /./.(.'.S.o C D D S ; T ; f y.w c D A - L f.$.5 t t.] X.5 7 ] O.} ",
"S C @ W q z S Z D m o C S Z S k 7.`.'.~.C ~.(.'.~.5 L { X.N Z ~.~./.`.6.o Z D D C , T - 7 Q 3 : Z V X  .D./.3.# i 9 | ;.Z 4 B Z ",
"D C $ W 9 k D Z S C o Z ) D D x 7.`.`.W.l S.'.'.W.F h.k.b.b 3 D  . .) Z m S m m M w ! Y Y 3 w O.a.f.N 2./.).S.% R q 7.(.Q.4 m S ",
"x k B +.-.) c k c x o c ) S Z k C -.-.) k D 8.W.-.d l.k.A.q e p G T > 6./.(.-.J V.K.J.L.T.N ] k.k.V.`  .(./.:.@ a 5 ;.W.7.o k c ",
"A V ~.).(.'.| l Z | l B -.| k l c o ;.M.M.8.;.c j g N.h.B.3 e a a W 9 S.`.'.1.] K.P.P.P.Y.n T j.d.d.N b *.F F 1 F - ! s.s.: m Z ",
"C A (.`.(.].-.c S -.B S././.k m S l S././.(.W.k j 5 ' ` +.3 7 u a T 3 >./.(.| s G.H.A.V.c.3 7 G L 9 ; p n % H H Q ; i.V.A.5 M D ",
"k B ~.).(.].D x D C l D./.(.c c C l S./././.S.k m S j C S.M.6.#.6 ^ | |  .| Y J { g L W Y # 1 H R 0 % f K % u G F # ~ $...: c S ",
"0 5 D ;.:.<.l 5 V c X -.m.7.x : l j m./././.6.k C A k  .(.`.].~.A ~.(.`.7.t l.G.B.3 d r.u.; u H R G @ a F > n > Z ;.2.6.7.*.: , ",
"T w : C S l 6 ! { @.! _ M k B c m j m ;.;.;.C j D *.Z D 6.S.Q.6.b /.'.'.7.t G.V.B.3 d q.X.# 1 u y v : k ;.S.W.m <.^.~.Q.~.~.> e ",
"H i l D D m 8 r.r.t.r.d.P x D S A D k j m C m ) ~././.~.*.k B c 5 =.6.7.) 9 ! Y V o 6 L J n 0 5 x S C l M./.'.*.;.Q.~.~.~.(.l u ",
"H 0 x D =.m 7 q.r.t.t.d.N c ) D D D c k D *.D -.).).(.}.<.k S S C - P ....$.l k Z z 6 X.O.X.u.z M *.*.l M./.'.7.m >.>.<.6.<.> 1 ",
"Q > z D D c > J ! ! L L l l Z D D S z z D D D ) (.`.(.].;.k A A S > ( @.@.,.c k =.c 8 r.t.t.y.5 m *.*.j 5././.~.k , G T I 5 Y K ",
"n...k ;.5.7.5.m ; F 5 -.3.-.*.c z m 4 k S S S 4  .2.6.6.m : M C c : N ^ U V l c S z 3 ! { [ ..: z S C j m 5.2.| j < R ~ I 6 j.l.",
"V.s.D /.`.'.].;.* Q B /.'.'.'.m ` o.} o 5 } } N - J ~ ..- K r.u.5 k Z Z m l 8.W.W.8.4 d t.p.@.4 c C c c 5.S.Q.A > n G K 9 6 j.l.",
"k.Y M ~./.`.'.;.% K Z (.'.).].P g.H.U.N L N.N.f.6 ! t.s.; E y.s.5 c D =.) Z /./.(.].V q.G.H.K.b C S S C ~.~.].) y ~ W J c b r.j.",
"F l 5 / ) ) >.V , 0 m W.~./.~.b e.H.U.N ] N.V.C.7 { t.O.. i X.o.o C ) ) D m ~.`.(.[.V ] G.H.K.M C S S m S.W.M.z 7 W X.P ;.~.D.>.",
"0 p G G 9 6 ~ X.{ X.4 | 7.8.:.- s d.x.4 d N.H.O., { y.I 4 m V b . c Z D B 4 6.Q.!.~.m t h.g.s.4 l U } V ..Z m =./ Y K 9 6.`.].5.",
"u a H R i 7 r.r.0.s.5 7.(.(.`.m m *.D o 9 Y @.N $ W r.5 c S C A 4 0 J l | :.<.;.Z V J N 3 z C 4 6 h.N.N.K.` | (.).^.D . <.`.].| ",
"1 a H R w ; W 0.{ [ 5 6.`.`.[.Z -.<.2.j m C S 8.2. .P 4 x Z A S > d X.5 D.).).'.| t { p.4 c ) m t N.K.N.P.o.<.'.'.[.| D =.:.5.l ",
"n y 0 0 5 X > b V m : <.`.`.`.m -.<.<.j C c  .^.(.(.B -.-.c c m # f ' - m.).).].:.t q.p.9 c A B 6 h.G.V.J.P <.'.'.`.) /.`.S -.;."
};
